{"title":"Freezer.2013.720p.BluRay.AC3-5.1.x264-AXED","uid":9416339,"size":3680762942,"categoryP":"video","categoryS":"hd___movies","magnet":"?xt=urn:btih:cb57d2a57539be485dd93a589b9b43937653080c&amp;dn=Freezer.2013.720p.BluRay.AC3-5.1.x264-AXED&amp;tr=udp%3A%2F%2Ftracker.openbittorrent.com%3A80&amp;tr=udp%3A%2F%2Fopen.demonii.com%3A1337&amp;tr=udp%3A%2F%2Ftracker.coppersurfer.tk%3A6969&amp;tr=udp%3A%2F%2Fexodus.desync.com%3A6969","seeders":5,"leechers":1,"uploader":"Acesn8s","files":-1,"time":1388453238,"description":"Freezer.2013.720p.BluRay.AC3-5.1.x264-AXED\n\n----------------------------------------------------------------------------------\n\nFormat                                   : Matroska\nFormat version                           : Version 2\nFile size                                : 3.39 GiB\nDuration                                 : 1h 22mn\nOverall bit rate                         : 5 908 Kbps\nEncoded date                             : UTC 2013-12-29 17:28:29\nWriting application                      : mkvmerge v4.0.0 ('The Stars were mine') built on Jun  6 2010 16:18:42\nWriting library                          : libebml v1.0.0 + libmatroska v1.0.0\n\n----------------------------------------------------------------------------------\n\nVideo\nID                                       : 1\nFormat                                   : AVC\nFormat/Info                              : Advanced Video Codec\nFormat profile                           : &lt;a class=&quot;__cf_email__&quot; href=&quot;/cdn-cgi/l/email-protection&quot; data-cfemail=&quot;c58daca2ad8589f1ebf4&quot;&gt;[email&amp;#160;protected]&lt;/a&gt;&lt;script cf-hash='f9e31' type=&quot;text/javascript&quot;&gt;\n/* &lt;![CDATA[ */!function(){try{var t=&quot;currentScript&quot;in document?document.currentScript:function(){for(var t=document.getElementsByTagName(&quot;script&quot;),e=t.length;e--;)if(t[e].getAttribute(&quot;cf-hash&quot;))return t[e]}();if(t&amp;&amp;t.previousSibling){var e,r,n,i,c=t.previousSibling,a=c.getAttribute(&quot;data-cfemail&quot;);if(a){for(e=&quot;&quot;,r=parseInt(a.substr(0,2),16),n=2;a.length-n;n+=2)i=parseInt(a.substr(n,2),16)^r,e+=String.fromCharCode(i);e=document.createTextNode(e),c.parentNode.replaceChild(e,c)}}}catch(u){}}();/* ]]&gt; */&lt;/script&gt;\nFormat settings, CABAC                   : Yes\nFormat settings, ReFrames                : 9 frames\nCodec ID                                 : V_MPEG4/ISO/AVC\nDuration                                 : 1h 22mn\nBit rate                                 : 5 150 Kbps\nWidth                                    : 1 280 pixels\nHeight                                   : 544 pixels\nDisplay aspect ratio                     : 2.35:1\nFrame rate mode                          : Constant\nFrame rate                               : 23.976 fps\nColor space                              : YUV\nChroma subsampling                       : 4:2:0\nBit depth                                : 8 bits\nScan type                                : Progressive\nBits/(Pixel*Frame)                       : 0.308\nStream size                              : 2.96 GiB (87%)\nWriting library                          : x264 core 68 r1195bm 5d75a9b\n\n----------------------------------------------------------------------------------\n\nAudio\nID                                       : 2\nFormat                                   : AC-3\nFormat/Info                              : Audio Coding 3\nMode extension                           : CM (complete main)\nFormat settings, Endianness              : Big\nCodec ID                                 : A_AC3\nDuration                                 : 1h 22mn\nBit rate mode                            : Constant\nBit rate                                 : 640 Kbps\nChannel(s)                               : 6 channels\nChannel positions                        : Front: L C R, Side: L R, LFE\nSampling rate                            : 48.0 KHz\nBit depth                                : 16 bits\nCompression mode                         : Lossy\nStream size                              : 376 MiB (11%)\n\n----------------------------------------------------------------------------------\n\nIMDB:\n &lt;a href=&quot;\nhttp://www.imdb.com/title/tt2325002&quot; rel=&quot;nofollow&quot; target=&quot;_NEW&quot;&gt;\nhttp://www.imdb.com/title/tt2325002&lt;/a&gt;\n\nPLOT INFO:\nRobert is an ordinary man who is faced with extraordinary circumstances. He is locked in a meat freezer by Russian thugs who believe that he owes them 8 million dollars.\n\n----------------------------------------------------------------------------------\n\nSOURCE:\n\nRetail RA Blu-Ray DISC\n\nNOTES:\n\nHere's a 720p x264 encode of this new thriller starring Dylan McDermott &amp; Peter Facinelli for those waiting on HD.\n\nAXED! We are this.\n\n----------------------------------------------------------------------------------\n\nSCREENS:\n &lt;a href=&quot;\nhttp://s27.postimg.org/6fbahcxer/ENpvo_FFv.png&quot; rel=&quot;nofollow&quot; target=&quot;_NEW&quot;&gt;\nhttp://s27.postimg.org/6fbahcxer/ENpvo_FFv.png&lt;/a&gt;\n &lt;a href=&quot;\nhttp://s27.postimg.org/f6dpxvrc3/RMwsd_P4o.png&quot; rel=&quot;nofollow&quot; target=&quot;_NEW&quot;&gt;\nhttp://s27.postimg.org/f6dpxvrc3/RMwsd_P4o.png&lt;/a&gt;\n &lt;a href=&quot;\nhttp://s27.postimg.org/cb0mr0nc3/Wtbz7_Go_B.png&quot; rel=&quot;nofollow&quot; target=&quot;_NEW&quot;&gt;\nhttp://s27.postimg.org/cb0mr0nc3/Wtbz7_Go_B.png&lt;/a&gt;\n &lt;a href=&quot;\nhttp://s27.postimg.org/p6d7rirz7/Y2a_Cs_In_V.png&quot; rel=&quot;nofollow&quot; target=&quot;_NEW&quot;&gt;\nhttp://s27.postimg.org/p6d7rirz7/Y2a_Cs_In_V.png&lt;/a&gt;\n &lt;a href=&quot;\nhttp://s27.postimg.org/dsm32ks2r/Z5_Oa4p_Xs.png&quot; rel=&quot;nofollow&quot; target=&quot;_NEW&quot;&gt;\nhttp://s27.postimg.org/dsm32ks2r/Z5_Oa4p_Xs.png&lt;/a&gt; ","torrent":{"xt":"urn:btih:cb57d2a57539be485dd93a589b9b43937653080c","amp;dn":"Freezer.2013.720p.BluRay.AC3-5.1.x264-AXED","amp;tr":["udp%3A%2F%2Ftracker.openbittorrent.com%3A80","udp%3A%2F%2Fopen.demonii.com%3A1337","udp%3A%2F%2Ftracker.coppersurfer.tk%3A6969","udp%3A%2F%2Fexodus.desync.com%3A6969"],"infoHash":"cb57d2a57539be485dd93a589b9b43937653080c","infoHashBuffer":{"type":"Buffer","data":[203,87,210,165,117,57,190,72,93,217,58,88,155,155,67,147,118,83,8,12]},"announce":[],"urlList":[]}}